<svg xmlns="http://www.w3.org/2000/svg" xmlns:xlink="http://www.w3.org/1999/xlink" width="1020px" height="600px" viewBox="0 0 1020 600" preserveAspectRatio="xMidYMid meet"  ><rect id="svgEditorBackground" x="0" y="0" width="1020" height="600" style="fill: none; stroke: none;"/><defs id="svgEditorDefs"><polygon id="svgEditorShapeDefs" style="fill:khaki;stroke:black;vector-effect:non-scaling-stroke;stroke-width:1px;"/><linearGradient gradientUnits="objectBoundingBox" id="lgrd2-fire" spreadMethod="pad" x1="0%" x2="100%" y1="0%" y2="0%"><stop offset="0%" style="stop-color:rgb(255,255,0);stop-opacity:1"/><stop offset="100%" style="stop-color:rgb(255,0,0);stop-opacity:1"/></linearGradient><linearGradient gradientUnits="objectBoundingBox" id="lgrd2-black-white" spreadMethod="pad" x1="0%" x2="100%" y1="0%" y2="100%"><stop offset="0%" stop-color="black"/><stop offset="100%" stop-color="white"/></linearGradient><linearGradient gradientUnits="objectBoundingBox" id="lgrd2-b" spreadMethod="pad" x1="0" x2="100%" y1="0" y2="0" gradientTransform="rotate(88.9103)"><stop offset="0%" stop-color="#BBC42A"/><stop offset="100%" stop-color="#ED6E46"/></linearGradient></defs><rect x="254" y="73" style="fill:orange;stroke:transparent;stroke-width:1px;" id="e3_rectangle" width="266" height="161" ry="0" transform="matrix(1 0 0 1.31492 0 -76.8398)" rx="0"/><text style="fill:gold;font-family:Arial;font-size:20px;stroke:white;" x="281" y="160" id="e4_texte" transform="matrix(1.21757 0 0 2.31219 -81.0679 -200.489)"></text><path d="M0,-3.464l-4,6.928h8Z" style="fill:orange; stroke:transparent; vector-effect:non-scaling-stroke;stroke-width:1px;" id="e5_shape" transform="matrix(-19.8731 0.062874 -0.133719 -12.7466 385.493 259.341)"/><text dy="-0.5em" style="fill:black;font-family:Arial;font-size:20px;" id="e7_texte" ><textPath id="e6_textPath" xlink:href="#e5_shape"></textPath></text><text style="fill:black;font-family:Arial;font-size:20px;" x="253" y="21" id="e8_texte" transform="matrix(6.1976 0 0 2.54 -1168.49 71.16)"></text><text style="fill:white;font-family:Arial;font-size:20px;stroke:white;" x="309" y="86" id="e9_texte" transform="matrix(3.82206 0 0 4.14552 -947.411 -252.511)" dy="" dx=""><tspan x="352.58" style="text-anchor:middle;" dx="" dy="" y="">We Are </tspan><tspan x="349.423" dy="1.25em" style="text-anchor:middle;" dx="" y=""> Hiring</tspan></text></svg>